<svg width="22" height="22" viewBox="0 0 22 22" fill="none" xmlns="http://www.w3.org/2000/svg">
<path d="M21.4922 11.1489C21.4144 10.261 21.4183 9.0625 21.2349 8.21211C21.1167 7.69071 20.8112 7.51746 20.6053 7.23843C20.2819 6.86028 19.9525 6.41383 19.6291 6.03568C18.4118 4.5664 17.1945 3.09712 15.9771 1.62784C16.1007 1.79526 16.1147 3.19868 16.1387 3.47187C16.1626 3.74506 16.1767 5.14848 16.3002 5.3159C16.9118 6.08468 17.5527 6.77268 18.1644 7.54147C12.1608 7.77105 6.122 8.01311 0.124405 8.31098C0.194791 8.286 0.335897 11.9682 0.441476 11.9307C5.89921 11.6836 11.3921 11.4241 16.8911 11.2328C16.2051 11.6875 15.496 12.2913 14.8692 13.0067C14.7696 13.1125 14.9297 14.112 15.0427 14.9874C15.0906 15.5337 15.1384 16.0801 15.1863 16.6265C15.2859 16.5207 15.4207 16.4025 15.5203 16.2967C15.5203 16.2967 15.5555 16.2842 15.5495 16.2159C16.6099 15.0649 17.7885 14.4353 18.9671 13.8057C19.6238 13.4318 20.2865 13.1261 20.9312 12.6156C21.3064 12.3416 21.4764 12.2108 21.5049 11.7078C21.5109 11.7761 21.546 11.7636 21.552 11.8319C21.5401 11.6953 21.5281 11.5587 21.5161 11.4221C21.5101 11.3538 21.4982 11.2172 21.4922 11.1489ZM19.8286 9.55632C19.7934 9.56881 19.7934 9.56881 19.7582 9.5813C19.7523 9.513 19.7463 9.44471 19.7463 9.44471C19.7463 9.44471 19.7875 9.50051 19.8286 9.55632Z" fill="white"/>
</svg>
